<svg xmlns="http://www.w3.org/2000/svg" viewBox="0 0 140 180" fill="none">
  <!-- Bookcase back panel -->
  <rect x="8" y="10" width="124" height="166" rx="6" fill="#8B6340"/>
  <!-- Side panels -->
  <rect x="8" y="10" width="14" height="166" rx="4" fill="#7A5230"/>
  <rect x="118" y="10" width="14" height="166" rx="4" fill="#7A5230"/>
  <!-- Top panel -->
  <rect x="8" y="10" width="124" height="12" rx="4" fill="#9B7350"/>
  <!-- Bottom panel -->
  <rect x="8" y="164" width="124" height="12" rx="4" fill="#9B7350"/>
  <!-- Shelves -->
  <rect x="18" y="56" width="104" height="8" rx="3" fill="#9B7350"/>
  <rect x="18" y="104" width="104" height="8" rx="3" fill="#9B7350"/>
  <rect x="18" y="152" width="104" height="8" rx="3" fill="#9B7350"/>
  <!-- Shelf 1 books -->
  <rect x="22" y="24" width="12" height="30" rx="2" fill="#E05050"/>
  <rect x="36" y="28" width="10" height="26" rx="2" fill="#4A80C0"/>
  <rect x="48" y="22" width="14" height="32" rx="2" fill="#60A840"/>
  <rect x="64" y="26" width="10" height="28" rx="2" fill="#E0A030"/>
  <rect x="76" y="24" width="12" height="30" rx="2" fill="#8050C0"/>
  <rect x="90" y="28" width="10" height="26" rx="2" fill="#D05080"/>
  <rect x="102" y="22" width="14" height="32" rx="2" fill="#30A0A0"/>
  <!-- Shelf 2 books -->
  <rect x="22" y="70" width="10" height="32" rx="2" fill="#4A80C0"/>
  <rect x="34" y="74" width="14" height="28" rx="2" fill="#60A840"/>
  <rect x="50" y="68" width="10" height="34" rx="2" fill="#E0A030"/>
  <rect x="62" y="72" width="12" height="30" rx="2" fill="#E05050"/>
  <rect x="76" y="70" width="10" height="32" rx="2" fill="#30A0A0"/>
  <rect x="88" y="74" width="14" height="28" rx="2" fill="#8050C0"/>
  <rect x="104" y="68" width="12" height="34" rx="2" fill="#D05080"/>
  <!-- Shelf 3 books -->
  <rect x="22" y="118" width="12" height="32" rx="2" fill="#60A840"/>
  <rect x="36" y="114" width="10" height="36" rx="2" fill="#E05050"/>
  <rect x="48" y="118" width="14" height="32" rx="2" fill="#4A80C0"/>
  <rect x="64" y="116" width="10" height="34" rx="2" fill="#E0A030"/>
  <rect x="76" y="118" width="12" height="32" rx="2" fill="#D05080"/>
  <rect x="90" y="114" width="10" height="36" rx="2" fill="#30A0A0"/>
  <rect x="102" y="118" width="14" height="32" rx="2" fill="#8050C0"/>
  <!-- Book spines highlight -->
  <rect x="22" y="24" width="2" height="30" rx="1" fill="white" opacity="0.2"/>
  <rect x="48" y="22" width="2" height="32" rx="1" fill="white" opacity="0.2"/>
<text x="50%" y="50%" dominant-baseline="middle" text-anchor="middle" font-family="Arial" font-size="20" fill="red">BACK</text></svg>
