<svg xmlns="http://www.w3.org/2000/svg" viewBox="0 0 140 200" fill="none">
  <!-- Vase body -->
  <path d="M50 170 Q20 160 22 120 Q18 90 30 70 Q38 55 40 30 L100 30 Q102 55 110 70 Q122 90 118 120 Q120 160 90 170 Z" fill="#6080C8"/>
  <path d="M50 170 Q20 160 22 120 Q18 90 30 70 Q38 55 40 30 L100 30 Q102 55 110 70 Q122 90 118 120 Q120 160 90 170 Z" fill="url(#vasegrad)"/>
  <defs>
    <linearGradient id="vasegrad" x1="0" y1="0" x2="1" y2="0">
      <stop offset="0%" stop-color="#3A5898"/>
      <stop offset="35%" stop-color="#7090D8"/>
      <stop offset="65%" stop-color="#7090D8"/>
      <stop offset="100%" stop-color="#3A5898"/>
    </linearGradient>
  </defs>
  <!-- Vase neck -->
  <rect x="44" y="20" width="52" height="14" rx="6" fill="#5070B8"/>
  <rect x="38" y="170" width="64" height="10" rx="5" fill="#4060A0"/>
  <!-- Vase base disc -->
  <ellipse cx="70" cy="180" rx="32" ry="8" fill="#3A5898"/>
  <!-- Pattern on vase -->
  <ellipse cx="70" cy="110" rx="30" ry="22" fill="none" stroke="#90B0E8" stroke-width="1.5" opacity="0.5"/>
  <path d="M50 90 Q70 80 90 90" stroke="#90B0E8" stroke-width="1.5" fill="none" opacity="0.5"/>
  <!-- Stems -->
  <path d="M70 20 Q60 0 50 -20" stroke="#3A7A20" stroke-width="4" fill="none" stroke-linecap="round"/>
  <path d="M70 20 Q70 -5 70 -25" stroke="#4A9A28" stroke-width="4" fill="none" stroke-linecap="round"/>
  <path d="M70 20 Q80 0 90 -18" stroke="#3A7A20" stroke-width="4" fill="none" stroke-linecap="round"/>
  <path d="M70 20 Q55 5 44 -10" stroke="#4A9A28" stroke-width="3" fill="none" stroke-linecap="round"/>
  <path d="M70 20 Q84 5 96 -8" stroke="#4A9A28" stroke-width="3" fill="none" stroke-linecap="round"/>
  <!-- Flowers -->
  <circle cx="50" cy="-20" r="10" fill="#FF6080"/>
  <circle cx="50" cy="-20" r="5" fill="#FFDD44"/>
  <circle cx="70" cy="-26" r="11" fill="#FF80A0"/>
  <circle cx="70" cy="-26" r="5" fill="#FFDD44"/>
  <circle cx="90" cy="-18" r="10" fill="#FF6080"/>
  <circle cx="90" cy="-18" r="5" fill="#FFDD44"/>
  <circle cx="44" cy="-10" r="8" fill="#FF90B0"/>
  <circle cx="96" cy="-8" r="8" fill="#FF90B0"/>
</svg>
